{"title":"Top.Gear.2006.DVDRip.Suspect","uid":8071548,"size":733811569,"categoryP":"video","categoryS":"hd___movies","magnet":"?xt=urn:btih:c20306293768407dde7cf0ce9e44bece1f038b88&amp;dn=Top.Gear.2006.DVDRip.Suspect&amp;tr=udp%3A%2F%2Ftracker.openbittorrent.com%3A80&amp;tr=udp%3A%2F%2Fopen.demonii.com%3A1337&amp;tr=udp%3A%2F%2Ftracker.coppersurfer.tk%3A6969&amp;tr=udp%3A%2F%2Fexodus.desync.com%3A6969","seeders":1,"leechers":0,"uploader":"Hr.Janno","files":-1,"time":1359245452,"description":"Video\nID                                       : 1\nFormat                                   : AVC\nFormat/Info                              : Advanced Video Codec\nFormat profile                           : &lt;a class=&quot;__cf_email__&quot; href=&quot;/cdn-cgi/l/email-protection&quot; data-cfemail=&quot;b1f9d8d6d9f1fd829f81&quot;&gt;[email&amp;#160;protected]&lt;/a&gt;&lt;script cf-hash='f9e31' type=&quot;text/javascript&quot;&gt;\n/* &lt;![CDATA[ */!function(){try{var t=&quot;currentScript&quot;in document?document.currentScript:function(){for(var t=document.getElementsByTagName(&quot;script&quot;),e=t.length;e--;)if(t[e].getAttribute(&quot;cf-hash&quot;))return t[e]}();if(t&amp;&amp;t.previousSibling){var e,r,n,i,c=t.previousSibling,a=c.getAttribute(&quot;data-cfemail&quot;);if(a){for(e=&quot;&quot;,r=parseInt(a.substr(0,2),16),n=2;a.length-n;n+=2)i=parseInt(a.substr(n,2),16)^r,e+=String.fromCharCode(i);e=document.createTextNode(e),c.parentNode.replaceChild(e,c)}}}catch(u){}}();/* ]]&gt; */&lt;/script&gt;\nFormat settings, CABAC                   : Yes\nFormat settings, ReFrames                : 4 frames\nCodec ID                                 : avc1\nCodec ID/Info                            : Advanced Video Coding\nDuration                                 : 59mn 2s\nBit rate                                 : 1 568 Kbps\nMaximum bit rate                         : 9 578 Kbps\nWidth                                    : 704 pixels\nHeight                                   : 560 pixels\nDisplay aspect ratio                     : 1.85:1\nFrame rate mode                          : Constant\nFrame rate                               : 25.000 fps\nColor space                              : YUV\nChroma subsampling                       : 4:2:0\nBit depth                                : 8 bits\nScan type                                : Progressive\nBits/(Pixel*Frame)                       : 0.159\nStream size                              : 662 MiB (95%)\nTitle                                    : Video\nWriting library                          : x264\n\nAudio\nID                                       : 2\nFormat                                   : AAC\nFormat/Info                              : Advanced Audio Codec\nFormat profile                           : HE-AAC / LC\nCodec ID                                 : 40\nDuration                                 : 59mn 2s\nBit rate mode                            : Variable\nBit rate                                 : 86.5 Kbps\nMaximum bit rate                         : 126 Kbps\nChannel(s)                               : 6 channels\nChannel positions                        : Front: L C R, Side: L R, LFE\nSampling rate                            : 48.0 KHz / 24.0 KHz\nCompression mode                         : Lossy\nDelay relative to video                  : 80ms\nStream size                              : 36.5 MiB (5%)\nLanguage                                 : English\nSubtitle                                 : Estonia (.SRT)","torrent":{"xt":"urn:btih:c20306293768407dde7cf0ce9e44bece1f038b88","amp;dn":"Top.Gear.2006.DVDRip.Suspect","amp;tr":["udp%3A%2F%2Ftracker.openbittorrent.com%3A80","udp%3A%2F%2Fopen.demonii.com%3A1337","udp%3A%2F%2Ftracker.coppersurfer.tk%3A6969","udp%3A%2F%2Fexodus.desync.com%3A6969"],"infoHash":"c20306293768407dde7cf0ce9e44bece1f038b88","infoHashBuffer":{"type":"Buffer","data":[194,3,6,41,55,104,64,125,222,124,240,206,158,68,190,206,31,3,139,136]},"announce":[],"urlList":[]}}